<svg xmlns="http://www.w3.org/2000/svg" xmlns:xlink="http://www.w3.org/1999/xlink" width="200" zoomAndPan="magnify" viewBox="0 0 150 74.999997" height="100" preserveAspectRatio="xMidYMid meet" version="1.0"><defs><g/></defs><g fill="#000000" fill-opacity="1"><g transform="translate(3.375443, 57.024264)"><g><path d="M 33.105469 -38.023438 C 33.734375 -38.527344 33.734375 -39.539062 32.410156 -39.539062 L 19.296875 -39.539062 C 18.664062 -39.539062 18.414062 -38.78125 19.042969 -38.277344 C 21.25 -36.636719 21.691406 -35.1875 21.691406 -32.917969 L 21.691406 -23.773438 L 11.792969 -23.773438 C 11.792969 -28.25 12.105469 -36.257812 14.378906 -38.023438 C 15.070312 -38.527344 15.070312 -39.539062 13.746094 -39.539062 L 0.628906 -39.539062 C 0 -39.539062 -0.253906 -38.78125 0.378906 -38.277344 C 2.585938 -36.636719 2.964844 -35.1875 2.964844 -32.917969 L 2.964844 -14.125 C 2.964844 -11.792969 2.585938 -10.40625 0.378906 -8.765625 C -0.253906 -8.261719 0 -7.441406 0.628906 -7.441406 L 13.746094 -7.441406 C 15.070312 -7.441406 15.070312 -8.511719 14.378906 -9.015625 C 12.296875 -10.59375 11.855469 -17.46875 11.792969 -22.007812 L 21.691406 -22.007812 L 21.691406 -14.125 C 21.691406 -11.792969 21.25 -10.40625 19.042969 -8.765625 C 18.414062 -8.261719 18.664062 -7.441406 19.296875 -7.441406 L 32.410156 -7.441406 C 33.734375 -7.441406 33.734375 -8.511719 33.105469 -9.015625 C 30.710938 -10.78125 30.519531 -19.105469 30.519531 -23.519531 C 30.519531 -27.933594 30.710938 -36.195312 33.105469 -38.023438 Z M 33.105469 -38.023438 "/></g></g></g><g fill="#000000" fill-opacity="1"><g transform="translate(37.426677, 57.024264)"><g><path d="M 19.167969 -30.773438 C 16.015625 -30.773438 13.117188 -27.179688 11.664062 -25.035156 L 12.171875 -29.132812 C 12.296875 -29.953125 12.925781 -30.960938 11.601562 -30.710938 C 9.207031 -30.203125 6.683594 -26.105469 0.628906 -26.105469 C 0 -26.105469 -0.253906 -25.347656 0.378906 -24.84375 C 2.585938 -23.140625 2.964844 -21.753906 2.964844 -19.421875 L 2.964844 -14.125 C 2.964844 -11.792969 2.585938 -10.40625 0.378906 -8.765625 C -0.253906 -8.261719 0 -7.441406 0.628906 -7.441406 L 12.925781 -7.441406 C 14.25 -7.441406 14.25 -8.511719 13.558594 -9.015625 C 11.792969 -10.339844 10.910156 -14.820312 11.351562 -21.816406 C 12.546875 -24.089844 14.691406 -26.421875 16.207031 -26.421875 C 17.339844 -26.421875 16.773438 -25.160156 16.519531 -23.773438 C 15.828125 -18.855469 26.421875 -20.808594 25.222656 -26.800781 C 24.71875 -29.449219 21.628906 -30.773438 19.167969 -30.773438 Z M 19.167969 -30.773438 "/></g></g></g><g fill="#000000" fill-opacity="1"><g transform="translate(63.217329, 57.024264)"><g><path d="M 27.050781 -30.773438 L 19.738281 -30.773438 C 18.917969 -30.773438 18.664062 -30.015625 19.105469 -29.449219 C 21.691406 -26.484375 17.910156 -12.546875 17.910156 -12.546875 L 17.78125 -11.980469 L 17.65625 -12.171875 C 17.339844 -12.738281 12.105469 -22.449219 15.324219 -29.449219 C 15.636719 -30.140625 15.324219 -30.773438 14.691406 -30.773438 L 0.945312 -30.773438 C -0.441406 -30.773438 -0.0625 -29.699219 0.757812 -29.195312 C 2.523438 -28.125 4.097656 -25.917969 6.367188 -18.351562 L 8.828125 -10.59375 C 9.523438 -8.386719 9.898438 -7.441406 12.421875 -7.441406 L 16.394531 -7.441406 L 15.703125 -5.421875 C 12.359375 4.226562 7.1875 5.171875 8.449219 -0.253906 C 9.585938 -5.296875 2.269531 -6.808594 -1.199219 -2.269531 C -4.097656 1.578125 -1.386719 8.449219 5.484375 8.449219 C 9.144531 8.449219 13.683594 6.117188 16.773438 -3.089844 L 19.484375 -11.792969 L 23.269531 -24.089844 C 24.023438 -26.421875 24.65625 -28.1875 26.863281 -29.449219 C 27.683594 -29.953125 27.808594 -30.773438 27.050781 -30.773438 Z M 27.050781 -30.773438 "/></g></g></g><g fill="#000000" fill-opacity="1"><g transform="translate(91.404182, 57.024264)"><g><path d="M 24.277344 -30.773438 L 9.082031 -30.773438 C 5.109375 -30.773438 1.199219 -28.945312 0.253906 -26.167969 C -1.765625 -20.492188 8.890625 -21.0625 8.324219 -25.035156 C 7.945312 -27.933594 10.847656 -29.636719 11.792969 -28.753906 C 13.871094 -26.800781 5.359375 -10.78125 2.585938 -9.015625 C 1.703125 -8.449219 1.640625 -7.441406 2.964844 -7.441406 L 22.132812 -7.441406 C 23.332031 -7.441406 23.898438 -7.945312 23.898438 -9.207031 L 23.898438 -14.691406 C 23.898438 -15.386719 23.078125 -15.574219 22.574219 -14.945312 C 20.933594 -12.800781 19.234375 -9.207031 15.324219 -9.207031 L 14.25 -9.207031 C 18.035156 -13.621094 20.746094 -26.863281 24.277344 -29.195312 C 25.097656 -29.761719 25.601562 -30.773438 24.277344 -30.773438 Z M 24.277344 -30.773438 "/></g></g></g><g fill="#000000" fill-opacity="1"><g transform="translate(116.879548, 57.024264)"><g><path d="M 30.644531 -8.765625 C 28.4375 -10.40625 28.0625 -11.792969 28.0625 -14.125 L 28.0625 -18.285156 C 28.0625 -25.222656 23.710938 -30.773438 16.898438 -30.773438 C 14.882812 -30.773438 13.242188 -29.449219 11.980469 -27.808594 L 12.171875 -29.132812 C 12.296875 -29.953125 12.925781 -30.960938 11.601562 -30.710938 C 9.207031 -30.203125 6.683594 -26.105469 0.628906 -26.105469 C 0 -26.105469 -0.253906 -25.347656 0.378906 -24.84375 C 2.585938 -23.140625 2.964844 -21.753906 2.964844 -19.421875 L 2.964844 -14.125 C 2.964844 -11.792969 2.585938 -10.40625 0.378906 -8.765625 C -0.253906 -8.261719 0 -7.441406 0.628906 -7.441406 L 12.925781 -7.441406 C 14.25 -7.441406 14.25 -8.511719 13.558594 -9.015625 C 11.664062 -10.46875 10.78125 -15.574219 11.476562 -23.582031 C 12.546875 -25.980469 13.808594 -27.871094 15.070312 -27.871094 C 19.421875 -27.871094 21.25 -12.675781 17.214844 -9.015625 C 16.585938 -8.449219 16.519531 -7.441406 17.84375 -7.441406 L 30.394531 -7.441406 C 31.023438 -7.441406 31.277344 -8.261719 30.644531 -8.765625 Z M 30.644531 -8.765625 "/></g></g></g><g fill="#fbfaf9" fill-opacity="1"><g transform="translate(2.010162, 56.236018)"><g><path d="M 33.105469 -38.023438 C 33.734375 -38.527344 33.734375 -39.539062 32.410156 -39.539062 L 19.296875 -39.539062 C 18.664062 -39.539062 18.414062 -38.78125 19.042969 -38.277344 C 21.25 -36.636719 21.691406 -35.1875 21.691406 -32.917969 L 21.691406 -23.773438 L 11.792969 -23.773438 C 11.792969 -28.25 12.105469 -36.257812 14.378906 -38.023438 C 15.070312 -38.527344 15.070312 -39.539062 13.746094 -39.539062 L 0.628906 -39.539062 C 0 -39.539062 -0.253906 -38.78125 0.378906 -38.277344 C 2.585938 -36.636719 2.964844 -35.1875 2.964844 -32.917969 L 2.964844 -14.125 C 2.964844 -11.792969 2.585938 -10.40625 0.378906 -8.765625 C -0.253906 -8.261719 0 -7.441406 0.628906 -7.441406 L 13.746094 -7.441406 C 15.070312 -7.441406 15.070312 -8.511719 14.378906 -9.015625 C 12.296875 -10.59375 11.855469 -17.46875 11.792969 -22.007812 L 21.691406 -22.007812 L 21.691406 -14.125 C 21.691406 -11.792969 21.25 -10.40625 19.042969 -8.765625 C 18.414062 -8.261719 18.664062 -7.441406 19.296875 -7.441406 L 32.410156 -7.441406 C 33.734375 -7.441406 33.734375 -8.511719 33.105469 -9.015625 C 30.710938 -10.78125 30.519531 -19.105469 30.519531 -23.519531 C 30.519531 -27.933594 30.710938 -36.195312 33.105469 -38.023438 Z M 33.105469 -38.023438 "/></g></g></g><g fill="#fbfaf9" fill-opacity="1"><g transform="translate(36.061396, 56.236018)"><g><path d="M 19.167969 -30.773438 C 16.015625 -30.773438 13.117188 -27.179688 11.664062 -25.035156 L 12.171875 -29.132812 C 12.296875 -29.953125 12.925781 -30.960938 11.601562 -30.710938 C 9.207031 -30.203125 6.683594 -26.105469 0.628906 -26.105469 C 0 -26.105469 -0.253906 -25.347656 0.378906 -24.84375 C 2.585938 -23.140625 2.964844 -21.753906 2.964844 -19.421875 L 2.964844 -14.125 C 2.964844 -11.792969 2.585938 -10.40625 0.378906 -8.765625 C -0.253906 -8.261719 0 -7.441406 0.628906 -7.441406 L 12.925781 -7.441406 C 14.25 -7.441406 14.25 -8.511719 13.558594 -9.015625 C 11.792969 -10.339844 10.910156 -14.820312 11.351562 -21.816406 C 12.546875 -24.089844 14.691406 -26.421875 16.207031 -26.421875 C 17.339844 -26.421875 16.773438 -25.160156 16.519531 -23.773438 C 15.828125 -18.855469 26.421875 -20.808594 25.222656 -26.800781 C 24.71875 -29.449219 21.628906 -30.773438 19.167969 -30.773438 Z M 19.167969 -30.773438 "/></g></g></g><g fill="#fbfaf9" fill-opacity="1"><g transform="translate(61.852048, 56.236018)"><g><path d="M 27.050781 -30.773438 L 19.738281 -30.773438 C 18.917969 -30.773438 18.664062 -30.015625 19.105469 -29.449219 C 21.691406 -26.484375 17.910156 -12.546875 17.910156 -12.546875 L 17.78125 -11.980469 L 17.65625 -12.171875 C 17.339844 -12.738281 12.105469 -22.449219 15.324219 -29.449219 C 15.636719 -30.140625 15.324219 -30.773438 14.691406 -30.773438 L 0.945312 -30.773438 C -0.441406 -30.773438 -0.0625 -29.699219 0.757812 -29.195312 C 2.523438 -28.125 4.097656 -25.917969 6.367188 -18.351562 L 8.828125 -10.59375 C 9.523438 -8.386719 9.898438 -7.441406 12.421875 -7.441406 L 16.394531 -7.441406 L 15.703125 -5.421875 C 12.359375 4.226562 7.1875 5.171875 8.449219 -0.253906 C 9.585938 -5.296875 2.269531 -6.808594 -1.199219 -2.269531 C -4.097656 1.578125 -1.386719 8.449219 5.484375 8.449219 C 9.144531 8.449219 13.683594 6.117188 16.773438 -3.089844 L 19.484375 -11.792969 L 23.269531 -24.089844 C 24.023438 -26.421875 24.65625 -28.1875 26.863281 -29.449219 C 27.683594 -29.953125 27.808594 -30.773438 27.050781 -30.773438 Z M 27.050781 -30.773438 "/></g></g></g><g fill="#fbfaf9" fill-opacity="1"><g transform="translate(90.038901, 56.236018)"><g><path d="M 24.277344 -30.773438 L 9.082031 -30.773438 C 5.109375 -30.773438 1.199219 -28.945312 0.253906 -26.167969 C -1.765625 -20.492188 8.890625 -21.0625 8.324219 -25.035156 C 7.945312 -27.933594 10.847656 -29.636719 11.792969 -28.753906 C 13.871094 -26.800781 5.359375 -10.78125 2.585938 -9.015625 C 1.703125 -8.449219 1.640625 -7.441406 2.964844 -7.441406 L 22.132812 -7.441406 C 23.332031 -7.441406 23.898438 -7.945312 23.898438 -9.207031 L 23.898438 -14.691406 C 23.898438 -15.386719 23.078125 -15.574219 22.574219 -14.945312 C 20.933594 -12.800781 19.234375 -9.207031 15.324219 -9.207031 L 14.25 -9.207031 C 18.035156 -13.621094 20.746094 -26.863281 24.277344 -29.195312 C 25.097656 -29.761719 25.601562 -30.773438 24.277344 -30.773438 Z M 24.277344 -30.773438 "/></g></g></g><g fill="#fbfaf9" fill-opacity="1"><g transform="translate(115.514267, 56.236018)"><g><path d="M 30.644531 -8.765625 C 28.4375 -10.40625 28.0625 -11.792969 28.0625 -14.125 L 28.0625 -18.285156 C 28.0625 -25.222656 23.710938 -30.773438 16.898438 -30.773438 C 14.882812 -30.773438 13.242188 -29.449219 11.980469 -27.808594 L 12.171875 -29.132812 C 12.296875 -29.953125 12.925781 -30.960938 11.601562 -30.710938 C 9.207031 -30.203125 6.683594 -26.105469 0.628906 -26.105469 C 0 -26.105469 -0.253906 -25.347656 0.378906 -24.84375 C 2.585938 -23.140625 2.964844 -21.753906 2.964844 -19.421875 L 2.964844 -14.125 C 2.964844 -11.792969 2.585938 -10.40625 0.378906 -8.765625 C -0.253906 -8.261719 0 -7.441406 0.628906 -7.441406 L 12.925781 -7.441406 C 14.25 -7.441406 14.25 -8.511719 13.558594 -9.015625 C 11.664062 -10.46875 10.78125 -15.574219 11.476562 -23.582031 C 12.546875 -25.980469 13.808594 -27.871094 15.070312 -27.871094 C 19.421875 -27.871094 21.25 -12.675781 17.214844 -9.015625 C 16.585938 -8.449219 16.519531 -7.441406 17.84375 -7.441406 L 30.394531 -7.441406 C 31.023438 -7.441406 31.277344 -8.261719 30.644531 -8.765625 Z M 30.644531 -8.765625 "/></g></g></g></svg>