{"accessors" : [{"bufferView" : 0, "byteOffset" : 0, "componentType" : 5123, "count" : 76722, "type" : "SCALAR", "max" : [63941], "min" : [0]}, {"bufferView" : 1, "byteOffset" : 0, "componentType" : 5126, "count" : 63942, "type" : "VEC3", "max" : [30.5057315826416, 169.8550567626953, 27.904251098632812], "min" : [-30.5057315826416, 0, -27.904251098632812], "name" : "POSITION"}, {"bufferView" : 1, "byteOffset" : 12, "componentType" : 5126, "count" : 63942, "type" : "VEC2", "max" : [0.9967870116233826, -0.0027360001113265753], "min" : [0.0027340000960975885, -0.9850379824638367], "name" : "TEXCOORD_0"}, {"bufferView" : 1, "byteOffset" : 20, "componentType" : 5126, "count" : 63942, "type" : "VEC3", "max" : [0.9999944567680359, 0.9998107552528381, 1.0000044107437134], "min" : [-0.9997550845146179, -1.000001072883606, -1.0000044107437134], "name" : "NORMAL"}], "asset" : {"generator" : "Aspose.3D 22.1", "version" : "2.0"}, "buffers" : [{"uri" : "data:application/octet-stream;base64,", "byteLength" : 2608556}], "bufferViews" : [{"buffer" : 0, "byteOffset" : 0, "byteLength" : 153444, "target" : 34963}, {"buffer" : 0, "byteOffset" : 153448, "byteLength" : 2455104, "byteStride" : 32, "target" : 34962}], "meshes" : [{"primitives" : [{"attributes" : {"POSITION" : 1, "TEXCOORD_0" : 2, "NORMAL" : 3}, "indices" : 0, "mode" : 4}], "name" : ""}], "nodes" : [{"mesh" : 0, "name" : "character11"}], "scene" : 0, "scenes" : [{"nodes" : [0]}]}