{"accessors" : [{"bufferView" : 0, "byteOffset" : 0, "componentType" : 5123, "count" : 228, "type" : "SCALAR", "max" : [178], "min" : [0]}, {"bufferView" : 1, "byteOffset" : 0, "componentType" : 5126, "count" : 179, "type" : "VEC3", "max" : [10.413590431213379, 153.84934997558594, 20.051984786987305], "min" : [-10.418049812316895, 140.83119201660156, 12.40670394897461], "name" : "POSITION"}, {"bufferView" : 1, "byteOffset" : 12, "componentType" : 5126, "count" : 179, "type" : "VEC3", "max" : [0.5559127926826477, 0.24759893119335175, 0.9990488886833191], "min" : [-0.5562184453010559, -0.7950633764266968, 0.5618653893470764], "name" : "NORMAL"}, {"bufferView" : 1, "byteOffset" : 24, "componentType" : 5126, "count" : 179, "type" : "VEC2", "max" : [0.7121443152427673, -0.9097074866294861], "min" : [0.5932197570800781, -1.011059045791626], "name" : "TEXCOORD_0"}, {"bufferView" : 1, "byteOffset" : 32, "componentType" : 5126, "count" : 179, "type" : "VEC2", "max" : [0.7121443152427673, -0.9097074866294861], "min" : [0.5932197570800781, -1.011059045791626], "name" : "TEXCOORD_1"}, {"bufferView" : 0, "byteOffset" : 456, "componentType" : 5123, "count" : 456, "type" : "SCALAR", "max" : [368], "min" : [0]}, {"bufferView" : 2, "byteOffset" : 0, "componentType" : 5126, "count" : 369, "type" : "VEC3", "max" : [11.721966743469238, 165.63320922851562, 19.62800407409668], "min" : [-11.725813865661621, 152.78868103027344, 10.849930763244629], "name" : "POSITION"}, {"bufferView" : 2, "byteOffset" : 12, "componentType" : 5126, "count" : 369, "type" : "VEC3", "max" : [0.789685845375061, 0.6917601227760315, 0.9930458664894104], "min" : [-0.7899426817893982, 0.012779202312231064, 0.4504230320453644], "name" : "NORMAL"}, {"bufferView" : 2, "byteOffset" : 24, "componentType" : 5126, "count" : 369, "type" : "VEC2", "max" : [0.19642817974090576, -0.9039357900619507], "min" : [0.0038796900771558285, -1.0107676982879639], "name" : "TEXCOORD_0"}, {"bufferView" : 2, "byteOffset" : 32, "componentType" : 5126, "count" : 369, "type" : "VEC2", "max" : [0.19642817974090576, -0.9039357900619507], "min" : [0.0038796900771558285, -1.0107676982879639], "name" : "TEXCOORD_1"}, {"bufferView" : 0, "byteOffset" : 1368, "componentType" : 5123, "count" : 348, "type" : "SCALAR", "max" : [283], "min" : [0]}, {"bufferView" : 3, "byteOffset" : 0, "componentType" : 5126, "count" : 284, "type" : "VEC3", "max" : [13.252643585205078, 168.97125244140625, 18.19272232055664], "min" : [-13.255706787109375, 158.1453857421875, 9.320054054260254], "name" : "POSITION"}, {"bufferView" : 3, "byteOffset" : 12, "componentType" : 5126, "count" : 284, "type" : "VEC3", "max" : [0.8084942102432251, 0.3321119248867035, 0.9924379587173462], "min" : [-0.808822751045227, 0.022888192906975746, 0.5745242238044739], "name" : "NORMAL"}, {"bufferView" : 3, "byteOffset" : 24, "componentType" : 5126, "count" : 284, "type" : "VEC2", "max" : [0.9991851449012756, -0.8966598510742188], "min" : [0.9004241228103638, -1.0000938177108765], "name" : "TEXCOORD_0"}, {"bufferView" : 3, "byteOffset" : 32, "componentType" : 5126, "count" : 284, "type" : "VEC2", "max" : [0.9991851449012756, -0.8966598510742188], "min" : [0.9004241228103638, -1.0000938177108765], "name" : "TEXCOORD_1"}, {"bufferView" : 0, "byteOffset" : 2064, "componentType" : 5123, "count" : 31104, "type" : "SCALAR", "max" : [31103], "min" : [0]}, {"bufferView" : 4, "byteOffset" : 0, "componentType" : 5126, "count" : 31104, "type" : "VEC3", "max" : [94.59325408935547, 194.93003845214844, 39.229915618896484], "min" : [-94.58837890625, -0.22453321516513824, -34.495853424072266], "name" : "POSITION"}, {"bufferView" : 4, "byteOffset" : 12, "componentType" : 5126, "count" : 31104, "type" : "VEC3", "max" : [1.0000042915344238, 1.0000041723251343, 0.9999893307685852], "min" : [-1.0000042915344238, -0.9998958110809326, -0.9999731779098511], "name" : "NORMAL"}, {"bufferView" : 4, "byteOffset" : 24, "componentType" : 5126, "count" : 31104, "type" : "VEC2", "max" : [0.995639979839325, -0.0028899998869746923], "min" : [0.006779999937862158, -0.9987210035324097], "name" : "TEXCOORD_0"}, {"bufferView" : 4, "byteOffset" : 32, "componentType" : 5126, "count" : 31104, "type" : "VEC2", "max" : [0.995639979839325, -0.0028899998869746923], "min" : [0.006779999937862158, -0.9987210035324097], "name" : "TEXCOORD_1"}, {"bufferView" : 4, "byteOffset" : 40, "componentType" : 5126, "count" : 31104, "type" : "VEC2", "max" : [0.995639979839325, -0.0028899998869746923], "min" : [0.006779999937862158, -0.9987210035324097], "name" : "TEXCOORD_2"}, {"bufferView" : 0, "byteOffset" : 64272, "componentType" : 5123, "count" : 48, "type" : "SCALAR", "max" : [47], "min" : [0]}, {"bufferView" : 5, "byteOffset" : 0, "componentType" : 5126, "count" : 48, "type" : "VEC3", "max" : [15.761626243591309, 161.78982543945312, 18.389142990112305], "min" : [-15.769416809082031, 152.5757598876953, 17.98107147216797], "name" : "POSITION"}, {"bufferView" : 5, "byteOffset" : 12, "componentType" : 5126, "count" : 48, "type" : "VEC3", "max" : [0.003028645645827055, 0.04361879453063011, 0.999114453792572], "min" : [-0.003581225872039795, 0.04206950590014458, 0.9990525245666504], "name" : "NORMAL"}, {"bufferView" : 5, "byteOffset" : 24, "componentType" : 5126, "count" : 48, "type" : "VEC2", "max" : [0.25693100690841675, -0.9567800164222717], "min" : [0.13783599436283112, -0.9890909790992737], "name" : "TEXCOORD_0"}, {"bufferView" : 5, "byteOffset" : 32, "componentType" : 5126, "count" : 48, "type" : "VEC2", "max" : [0.25693100690841675, -0.9567800164222717], "min" : [0.13783599436283112, -0.9890909790992737], "name" : "TEXCOORD_1"}, {"bufferView" : 5, "byteOffset" : 40, "componentType" : 5126, "count" : 48, "type" : "VEC2", "max" : [0.25693100690841675, -0.9567800164222717], "min" : [0.13783599436283112, -0.9890909790992737], "name" : "TEXCOORD_2"}], "asset" : {"generator" : "Aspose.3D 22.1", "version" : "2.0"}, "buffers" : [{"uri" : "data:application/octet-stream;base64,", "byteLength" : 1600968}], "bufferViews" : [{"buffer" : 0, "byteOffset" : 0, "byteLength" : 64368, "target" : 34963}, {"buffer" : 0, "byteOffset" : 64372, "byteLength" : 9120, "byteStride" : 40, "target" : 34962}, {"buffer" : 0, "byteOffset" : 73496, "byteLength" : 18240, "byteStride" : 40, "target" : 34962}, {"buffer" : 0, "byteOffset" : 91740, "byteLength" : 13920, "byteStride" : 40, "target" : 34962}, {"buffer" : 0, "byteOffset" : 105664, "byteLength" : 1492992, "byteStride" : 48, "target" : 34962}, {"buffer" : 0, "byteOffset" : 1598660, "byteLength" : 2304, "byteStride" : 48, "target" : 34962}], "materials" : [{"name" : "", "pbrMetallicRoughness" : {"baseColorFactor" : [1, 1, 1, 1], "metallicFactor" : 0, "roughnessFactor" : 0}, "emissiveFactor" : [0, 0, 0], "alphaMode" : "OPAQUE", "doubleSided" : false}, {"name" : "", "pbrMetallicRoughness" : {"baseColorFactor" : [1, 1, 1, 1], "metallicFactor" : 0, "roughnessFactor" : 0}, "emissiveFactor" : [0, 0, 0], "alphaMode" : "OPAQUE", "doubleSided" : false}, {"name" : "", "pbrMetallicRoughness" : {"baseColorFactor" : [1, 1, 1, 1], "metallicFactor" : 0, "roughnessFactor" : 0}, "emissiveFactor" : [0, 0, 0], "alphaMode" : "OPAQUE", "doubleSided" : false}, {"name" : "", "pbrMetallicRoughness" : {"baseColorFactor" : [1, 1, 1, 1], "metallicFactor" : 0, "roughnessFactor" : 0}, "emissiveFactor" : [0, 0, 0], "alphaMode" : "OPAQUE", "doubleSided" : false}, {"name" : "", "pbrMetallicRoughness" : {"baseColorFactor" : [0, 1, 1, 0.18699932098388672], "metallicFactor" : 0, "roughnessFactor" : 0}, "emissiveFactor" : [0, 0, 0], "alphaMode" : "BLEND", "doubleSided" : false}], "meshes" : [{"primitives" : [{"attributes" : {"POSITION" : 1, "NORMAL" : 2, "TEXCOORD_0" : 3, "TEXCOORD_1" : 4}, "indices" : 0, "material" : 0, "mode" : 4}]}, {"primitives" : [{"attributes" : {"POSITION" : 6, "NORMAL" : 7, "TEXCOORD_0" : 8, "TEXCOORD_1" : 9}, "indices" : 5, "material" : 1, "mode" : 4}]}, {"primitives" : [{"attributes" : {"POSITION" : 11, "NORMAL" : 12, "TEXCOORD_0" : 13, "TEXCOORD_1" : 14}, "indices" : 10, "material" : 2, "mode" : 4}]}, {"primitives" : [{"attributes" : {"POSITION" : 16, "NORMAL" : 17, "TEXCOORD_0" : 18, "TEXCOORD_1" : 19, "TEXCOORD_2" : 20}, "indices" : 15, "material" : 3, "mode" : 4}, {"attributes" : {"POSITION" : 22, "NORMAL" : 23, "TEXCOORD_0" : 24, "TEXCOORD_1" : 25, "TEXCOORD_2" : 26}, "indices" : 21, "material" : 4, "mode" : 4}]}], "nodes" : [{"mesh" : 0, "name" : "Fitness_Grandma_MouthAnimGeo"}, {"mesh" : 1, "name" : "Fitness_Grandma_EyesAnimGeo"}, {"mesh" : 2, "name" : "Fitness_Grandma_BrowsAnimGeo"}, {"mesh" : 3, "name" : "Fitness_Grandma_BodyGeo"}], "scene" : 0, "scenes" : [{"nodes" : [0, 1, 2, 3]}]}